# xmcd CD database file
# Copyright (C) 1997 Ti Kan
# 
# Track frame offsets:
#     150
#     13185
#     25132
#     39895
#     55167
#     69412
#     83027
#     96612
#     109165
#     123272
# 
# Disc length: 1827 seconds
# 
# Revision: 1
# Processed by: cddbd v1.4b41PL1 Copyright (c) Steve Scherf et al.
# Submitted via: DiscPlay 4.0.4
# 
DISCID=7b07210a
DTITLE=Earnest Tubb - Retrospective . Volume 1
DYEAR=1900
DGENRE=
TTITLE0=Blue Eyed Elaine
TTITLE1=Walking The Floor Over You
TTITLE2=Solder's Last Letter
TTITLE3=It' s Been So Long Darling
TTITLE4=Rainbow At Midnight
TTITLE5=Filipino Baby
TTITLE6=Let's Say Goodbye Like We Said Hello
TTITLE7=Blue Christmas
TTITLE8=Unfaithful One
TTITLE9=Give Me A Little Old Fashion Love
EXTD=
EXTT0=
EXTT1=
EXTT2=
EXTT3=
EXTT4=
EXTT5=
EXTT6=
EXTT7=
EXTT8=
EXTT9=
PLAYORDER=
